<?xml version="1.0" encoding="UTF-8"?>
<svg version="1.1" xmlns="http://www.w3.org/2000/svg" width="468" height="468">
<path d="M0 0 C0.60054199 0.31694824 1.20108398 0.63389648 1.81982422 0.96044922 C48.41195816 25.75389098 82.96484205 70.13903716 98.97021484 120.02392578 C100.95013258 126.61891929 102.56489985 133.26720366 104 140 C104.26466064 141.18601807 104.26466064 141.18601807 104.53466797 142.39599609 C114.32125777 188.14757597 104.78325822 238.17857073 83 279 C82.68305176 279.60054199 82.36610352 280.20108398 82.03955078 280.81982422 C57.24610902 327.41195816 12.86096284 361.96484205 -37.02392578 377.97021484 C-43.61891929 379.95013258 -50.26720366 381.56489985 -57 383 C-58.18601807 383.26466064 -58.18601807 383.26466064 -59.39599609 383.53466797 C-105.14757597 393.32125777 -155.17857073 383.78325822 -196 362 C-196.60054199 361.68305176 -197.20108398 361.36610352 -197.81982422 361.03955078 C-244.13449378 336.39375835 -279.54335762 291.76036265 -294.97021484 241.86181641 C-296.94371354 234.96817754 -298.53233678 228.01636083 -300 221 C-300.17644043 220.2260791 -300.35288086 219.4521582 -300.53466797 218.65478516 C-310.6663166 173.45899677 -300.50490523 123.29980085 -279 83 C-278.68305176 82.39945801 -278.36610352 81.79891602 -278.03955078 81.18017578 C-253.24610902 34.58804184 -208.86096284 0.03515795 -158.97607422 -15.97021484 C-152.38108071 -17.95013258 -145.73279634 -19.56489985 -139 -21 C-138.20932129 -21.17644043 -137.41864258 -21.35288086 -136.60400391 -21.53466797 C-90.85242403 -31.32125777 -40.82142927 -21.78325822 0 0 Z " fill="#F5F4F3" transform="translate(325,52)"/>
<path d="M0 0 C4.19529254 2.94563093 6.3262887 6.22886609 7.9375 11.0625 C8.006491 13.12395107 8.02217727 15.18751401 8 17.25 C7.99097656 18.33667969 7.98195312 19.42335937 7.97265625 20.54296875 C7.96105469 21.37441406 7.94945312 22.20585937 7.9375 23.0625 C8.515 22.7325 9.0925 22.4025 9.6875 22.0625 C11.9375 21.0625 11.9375 21.0625 15.9375 21.0625 C14.8280928 24.54920834 13.67412334 27.83734237 11.9375 31.0625 C12.47117188 30.73636719 13.00484375 30.41023438 13.5546875 30.07421875 C16.52856777 28.81153844 18.84101692 28.83146644 22.0625 28.875 C23.11695313 28.88144531 24.17140625 28.88789063 25.2578125 28.89453125 C27.9375 29.0625 27.9375 29.0625 29.9375 30.0625 C29.9375 29.4025 29.9375 28.7425 29.9375 28.0625 C34.8875 28.3925 39.8375 28.7225 44.9375 29.0625 C43.3695009 38.47049461 39.40330116 45.71494114 31.89453125 51.6875 C29.32741336 53.49114371 26.88315309 54.96644304 23.9375 56.0625 C22.4525 55.5675 22.4525 55.5675 20.9375 55.0625 C21.741875 54.60875 22.54625 54.155 23.375 53.6875 C26.02606572 52.31524335 26.02606572 52.31524335 26.9375 50.0625 C25.92429688 50.07990234 25.92429688 50.07990234 24.890625 50.09765625 C23.99859375 50.10667969 23.1065625 50.11570312 22.1875 50.125 C21.30578125 50.13660156 20.4240625 50.14820313 19.515625 50.16015625 C17.1556162 50.07076198 15.19251476 49.73162821 12.9375 49.0625 C13.9275 50.67125 13.9275 50.67125 14.9375 52.3125 C16.82045807 55.37230686 16.9375 56.1960864 16.9375 60.0625 C13.9675 59.0725 10.9975 58.0825 7.9375 57.0625 C7.999375 58.42375 8.06125 59.785 8.125 61.1875 C8.13871904 65.55701497 7.15301709 68.25181061 4.9375 72.0625 C3.86107291 73.95100355 3.86107291 73.95100355 3.9375 76.0625 C4.576875 77.0525 5.21625 78.0425 5.875 79.0625 C8.96854859 84.07469545 8.69384102 89.36725214 7.9375 95.0625 C6.47502723 99.66630459 4.03279302 104.37130744 -0.0625 107.0625 C-3.5625 107.1875 -3.5625 107.1875 -7.0625 106.0625 C-12.10921698 100.06099873 -13.44519039 94.42854207 -13.33203125 86.78515625 C-12.9603609 83.03074703 -11.71444201 80.43521493 -10.0625 77.0625 C-9.81130125 73.01654502 -9.81130125 73.01654502 -11.5625 69.375 C-13.36035942 64.89301243 -13.36054512 60.83122187 -13.0625 56.0625 C-14.155625 56.7225 -15.24875 57.3825 -16.375 58.0625 C-18.99957538 59.64714929 -19.8881378 60.0625 -23.0625 60.0625 C-22.55214169 55.6734185 -21.54035723 52.72541938 -19.0625 49.0625 C-20.5475 49.5575 -20.5475 49.5575 -22.0625 50.0625 C-23.79045352 50.13052967 -25.52085365 50.14745645 -27.25 50.125 C-28.15105469 50.11597656 -29.05210937 50.10695313 -29.98046875 50.09765625 C-30.66753906 50.08605469 -31.35460937 50.07445312 -32.0625 50.0625 C-29.84315836 53.39151247 -28.71566671 53.81273244 -25.0625 55.0625 C-27.48284854 55.93120297 -28.7055264 56.18325078 -31.17578125 55.34765625 C-40.37561182 50.23300799 -46.39966489 42.98760159 -50.0625 33.0625 C-50.0625 31.7425 -50.0625 30.4225 -50.0625 29.0625 C-45.1125 28.7325 -40.1625 28.4025 -35.0625 28.0625 C-35.0625 28.7225 -35.0625 29.3825 -35.0625 30.0625 C-34.4025 29.7325 -33.7425 29.4025 -33.0625 29.0625 C-31.0643949 28.96600061 -29.0629282 28.93269128 -27.0625 28.9375 C-25.45375 28.93363281 -25.45375 28.93363281 -23.8125 28.9296875 C-21.0625 29.0625 -21.0625 29.0625 -19.0625 30.0625 C-19.5575 29.134375 -20.0525 28.20625 -20.5625 27.25 C-22.0625 24.0625 -22.0625 24.0625 -22.0625 21.0625 C-19.03764219 21.6506668 -16.04863386 22.30320528 -13.0625 23.0625 C-13.12050781 22.30066406 -13.17851562 21.53882813 -13.23828125 20.75390625 C-13.56635864 13.24562081 -12.80057425 8.03715957 -8.0625 2.0625 C-4.92517063 -0.83349634 -4.10353121 -1.25618302 0 0 Z " fill="#D7A171" transform="translate(229.0625,210.9375)"/>
<path d="M0 0 C3.67580205 4.76046495 5.29461128 9.00419586 6 15 C6.144375 16.216875 6.28875 17.43375 6.4375 18.6875 C6.32500739 24.54836479 3.43844496 29.40371133 0 34 C-7.71261652 40.80604581 -16.19362763 43.2216386 -26.359375 42.9921875 C-27.55820312 42.97542969 -28.75703125 42.95867187 -29.9921875 42.94140625 C-32.48192686 42.89740878 -34.97153889 42.8454259 -37.4609375 42.78515625 C-46.93978265 42.67352103 -55.85358156 43.09179551 -63 50 C-62.48474397 44.71862571 -60.74522883 41.42778844 -58 37 C-57.34 37 -56.68 37 -56 37 C-56 36.34 -56 35.68 -56 35 C-49.27011044 31.3719909 -43.70489819 30.46244683 -36.125 30.4375 C-20.53391693 30.04961847 -20.53391693 30.04961847 -7.65234375 21.9375 C-2.11513523 15.44469757 -1.05147738 8.30113722 0 0 Z " fill="#D6A378" transform="translate(323,176)"/>
<path d="M0 0 C2.37144653 2.37144653 2.38271044 3.37990762 2.875 6.625 C4.27544574 14.04415527 6.74478492 19.97397705 12.88354492 24.65283203 C20.88533211 29.74613711 30.29830152 29.42454752 39.43359375 29.3515625 C47.56395033 29.48252126 54.36629652 31.37889168 60.25390625 37.24609375 C62.78449681 41.48388869 64.7402333 44.93454937 65 50 C64.43152344 49.59007812 63.86304688 49.18015625 63.27734375 48.7578125 C62.50519531 48.21898437 61.73304688 47.68015625 60.9375 47.125 C60.18339844 46.59132812 59.42929688 46.05765625 58.65234375 45.5078125 C49.94414431 40.5573486 40.5549512 41.90440396 30.84570312 42.16601562 C20.85367654 42.31607713 11.98405759 41.53241076 4 35 C-2.37838077 28.43762748 -4.36081623 24.11093872 -4.37890625 14.80249023 C-4.25766832 9.14357214 -2.91569074 4.80307984 0 0 Z " fill="#D6A376" transform="translate(129,177)"/>
<path d="M0 0 C0.66 0 1.32 0 2 0 C2.33 1.98 2.66 3.96 3 6 C3.66 6 4.32 6 5 6 C5 5.34 5 4.68 5 4 C6.32 3.34 7.64 2.68 9 2 C9.125 4.375 9.125 4.375 9 7 C8.34 7.66 7.68 8.32 7 9 C7.28339105 11.64498314 8.14649417 13.23439068 9.5625 15.5 C11.91399592 21.22538137 12.11248594 27.47427533 10.23828125 33.4140625 C8.48472836 37.11523737 6.45995021 40.72631843 3 43 C-0.5 43.125 -0.5 43.125 -4 42 C-9.04612666 35.99920073 -10.38891777 30.36290167 -10.265625 22.71875 C-9.89629352 18.93853365 -8.6936199 16.3872398 -7 13 C-6.30859478 10.22111387 -6.30859478 10.22111387 -6 8 C-4.68 7.67 -3.36 7.34 -2 7 C-1.855625 6.030625 -1.71125 5.06125 -1.5625 4.0625 C-1 1 -1 1 0 0 Z " fill="#CC9369" transform="translate(226,275)"/>
<path d="M0 0 C2.21917139 2.15118802 2.46186261 3.70792977 2.78515625 6.73046875 C-6.5099815 8.63716367 -16.06721998 8.54709308 -24.52734375 3.91796875 C-27.22900505 1.71894211 -29.24951338 -0.39712532 -31.21484375 -3.26953125 C-31.21484375 -3.92953125 -31.21484375 -4.58953125 -31.21484375 -5.26953125 C-19.35150126 -7.28882359 -10.25680286 -6.56224265 0 0 Z " fill="#D6A372" transform="translate(190.21484375,228.26953125)"/>
<path d="M0 0 C-0.24688939 3.33300679 -1.20615802 4.19656928 -3.6875 6.5625 C-12.11805457 13.10171297 -20.65811327 13.50739415 -31 13 C-31.99 12.67 -32.98 12.34 -34 12 C-33.52300119 7.70701074 -31.20196975 5.71471348 -28 3 C-18.87768492 -1.64408768 -9.86206574 -1.64367762 0 0 Z " fill="#D6A272" transform="translate(294,223)"/>
<path d="M0 0 C3.7324595 3.84556433 5.94555012 7.69065719 6.03515625 13.13671875 C5.64786243 18.70052511 4.05601186 22.3666917 1 27 C-1.8125 26.875 -1.8125 26.875 -5 26 C-8.59776148 21.56276084 -8.5559856 16.48818162 -8.42578125 10.9921875 C-7.69837211 5.88030307 -5.73017558 0 0 0 Z " fill="#FDFAF8" transform="translate(228,214)"/>
<path d="M0 0 C1.921875 1.26171875 1.921875 1.26171875 4.671875 4.01171875 C4.671875 5.33171875 4.671875 6.65171875 4.671875 8.01171875 C-0.83255508 12.10803881 -5.39513902 12.66528989 -12.21484375 12.484375 C-16.78444037 11.79062194 -18.98058584 10.12570866 -22.328125 7.01171875 C-21.72660461 3.56203555 -21.44598126 3.10600376 -18.515625 0.76171875 C-12.90204333 -2.14345444 -5.82614249 -2.47317794 0 0 Z " fill="#FDFBF9" transform="translate(259.328125,244.98828125)"/>
<path d="M0 0 C1.91841007 1.19815291 3.70045422 2.43415163 5.4453125 3.87109375 C4.8442208 7.36035776 4.56613471 7.77653723 1.5703125 10.12109375 C-4.29559053 13.19313369 -10.8502681 12.48789116 -17.1171875 11.05859375 C-19.5546875 9.87109375 -19.5546875 9.87109375 -21.5546875 6.87109375 C-21.5546875 4.93359375 -21.5546875 4.93359375 -20.5546875 2.87109375 C-15.06542289 -2.46981236 -6.95681034 -3.07418683 0 0 Z " fill="#FDFBF9" transform="translate(210.5546875,245.12890625)"/>
<path d="M0 0 C0.75 1.625 0.75 1.625 1 4 C-3.20412169 12.40824338 -11.45466096 16.84301788 -20 20 C-24.57779631 21.37333889 -29.25981044 21.09294489 -34 21 C-32.9171875 19.9790625 -32.9171875 19.9790625 -31.8125 18.9375 C-29.68304582 16.86736209 -28.25823839 14.79876522 -26.75 12.25 C-25.48046875 10.421875 -25.48046875 10.421875 -24 9 C-20.0625 8.5 -20.0625 8.5 -17.75390625 8.4375 C-13.98984122 7.83952087 -10.85216743 6.22916077 -7.5 4.5 C-6.87617432 4.17837891 -6.25234863 3.85675781 -5.60961914 3.52539062 C-2.61265714 2.03988688 -2.61265714 2.03988688 0 0 Z " fill="#D7A578" transform="translate(324,214)"/>
<path d="M0 0 C0.72445312 0.48210937 1.44890625 0.96421875 2.1953125 1.4609375 C3.16210938 2.09257812 4.12890625 2.72421875 5.125 3.375 C6.07632813 4.00148437 7.02765625 4.62796875 8.0078125 5.2734375 C12.46956022 7.84797078 16.29987886 9.14734145 21.4375 9.0625 C24.5947664 9.33403556 25.71446035 9.72436346 28.02734375 11.95703125 C29.22815345 13.52849257 30.38652438 15.13363761 31.4921875 16.7734375 C32.85143745 18.78062007 34.23000468 20.35718997 36 22 C24.85839198 22.53911007 16.06014586 19.54990362 7 13 C3.70765989 9.62324091 0 4.91027325 0 0 Z " fill="#D7A474" transform="translate(127,213)"/>
<path d="M0 0 C0.66 0 1.32 0 2 0 C2.66 1.98 3.32 3.96 4 6 C6.10232344 3.1315587 6.10232344 3.1315587 7 0 C7.66 0 8.32 0 9 0 C12.16607047 5.19235558 11.59685862 11.13331654 11 17 C10.00690789 19.81546731 9.16695116 20.83304884 7 23 C4.859375 23.640625 4.859375 23.640625 3 24 C-1.31136247 18.62619463 -2.54007547 14.48189099 -2.37109375 7.61328125 C-1.97468004 4.8216942 -1.15077742 2.56498581 0 0 Z " fill="#FBF8F5" transform="translate(222,290)"/>
<path d="M0 0 C3.40121926 2.84753241 4.7985391 4.48904322 5.390625 8.9296875 C5.52029907 17.7691365 5.52029907 17.7691365 3 22 C2.34 22 1.68 22 1 22 C0.67 20.02 0.34 18.04 0 16 C-2.34058637 18.12780579 -3.70700306 20.11562221 -5 23 C-7.70799321 19.13754652 -8.36769898 16.57118933 -8.25 11.875 C-8.23453125 10.84117187 -8.2190625 9.80734375 -8.203125 8.7421875 C-7.95580104 5.40331404 -7.65448582 3.58903724 -5.125 1.3125 C-3 0 -3 0 0 0 Z " fill="#FCFAF7" transform="translate(228,259)"/>
<path d="M0 0 C0 1.32 0 2.64 0 4 C-4.21263621 8.06218492 -8.94542513 8.27154203 -14.5390625 8.234375 C-18.58726359 7.84883204 -22.23979514 6.49341469 -26 5 C-25.05511575 2.6785585 -24.46792581 1.28828533 -22.30078125 -0.046875 C-14.41680693 -2.83492093 -7.97158625 -2.02452984 0 0 Z " fill="#D7A474" transform="translate(303,240)"/>
<path d="M0 0 C0 0.66 0 1.32 0 2 C-6.24368728 4.5336702 -12.24680494 6.21017255 -19 5 C-21.92575911 3.63432962 -24.46016791 1.98646085 -27 0 C-26.67 -0.99 -26.34 -1.98 -26 -3 C-16.78994443 -6.69588067 -8.14966849 -5.43311233 0 0 Z " fill="#D7A272" transform="translate(176,243)"/>
<path d="M0 0 C1.23419902 2.46839804 0.93852177 3.82464982 0.75 6.5625 C0.64771448 12.41834599 2.78021421 16.23931673 6 21 C9.09803959 20.41406643 10.89648975 19.5235659 13.25 17.4375 C14.1575 16.633125 15.065 15.82875 16 15 C15.73321412 18.82393091 15.14625232 20.79782767 12.875 23.9375 C10 26 10 26 6.4375 26.1875 C2.05552396 24.67372646 1.10800249 23.05985665 -1 19 C-2.77090348 15.22501358 -3.2252789 12.34907453 -3.125 8.1875 C-3.10695312 7.21167969 -3.08890625 6.23585938 -3.0703125 5.23046875 C-3.04710937 4.49441406 -3.02390625 3.75835937 -3 3 C-2.34 3 -1.68 3 -1 3 C-0.67 2.01 -0.34 1.02 0 0 Z " fill="#C18962" transform="translate(219,292)"/>
<path d="M0 0 C3 1 3 1 5 2 C4 5 4 5 2 6 C-2.55547083 6.25785684 -5.8780636 5.99851462 -10 4 C-10 3.01 -10 2.02 -10 1 C-6.82587823 -0.58706088 -3.46361333 -0.28477127 0 0 Z " fill="#DAA97D" transform="translate(284,249)"/>
<path d="M0 0 C2 1.5 2 1.5 3 3 C-1.53629227 5.6553906 -4.74629229 6.4956328 -10 6 C-10.99 5.34 -11.98 4.68 -13 4 C-13 3.34 -13 2.68 -13 2 C-8.47806839 -0.2609658 -4.96161052 -0.40012988 0 0 Z " fill="#DAA67A" transform="translate(177,249)"/>
<path d="M0 0 C3.48484223 0.59907141 3.88860356 0.85359325 6.1875 3.875 C8.8270193 8.42589535 9.11390182 11.49591609 9.0625 16.6875 C9.05347656 17.86699219 9.04445312 19.04648438 9.03515625 20.26171875 C9.02355469 21.16535156 9.01195312 22.06898438 9 23 C8.67 23 8.34 23 8 23 C7.76216797 21.64068359 7.76216797 21.64068359 7.51953125 20.25390625 C6.06781866 12.67452283 4.30947228 6.43865819 0 0 Z " fill="#DBAD84" transform="translate(191,210)"/>
<path d="M0 0 C0.66 0.33 1.32 0.66 2 1 C1.66226562 1.49628906 1.32453125 1.99257812 0.9765625 2.50390625 C-3.5594614 9.41282126 -5.14300766 15.85857276 -6 24 C-6.33 24 -6.66 24 -7 24 C-7.78407811 8.2966579 -7.78407811 8.2966579 -1.25 1.0625 C-0.8375 0.711875 -0.425 0.36125 0 0 Z " fill="#DBAE86" transform="translate(260,210)"/>
<path d="M0 0 C1.125 3.75 1.125 3.75 0 6 C-0.22467831 7.53668865 -0.40796805 9.07968054 -0.5625 10.625 C-0.64628906 11.44226563 -0.73007813 12.25953125 -0.81640625 13.1015625 C-0.87699219 13.72804687 -0.93757812 14.35453125 -1 15 C-1.33 15 -1.66 15 -2 15 C-2.33 12.36 -2.66 9.72 -3 7 C-3.33 10.96 -3.66 14.92 -4 19 C-4.99 18.67 -5.98 18.34 -7 18 C-6.34 18 -5.68 18 -5 18 C-5.03480469 16.77023438 -5.03480469 16.77023438 -5.0703125 15.515625 C-5.08835938 14.43796875 -5.10640625 13.3603125 -5.125 12.25 C-5.14820313 11.18265625 -5.17140625 10.1153125 -5.1953125 9.015625 C-5.00122458 6.01890746 -4.67232902 4.45865591 -3 2 C-2.01 1.34 -1.02 0.68 0 0 Z " fill="#DEB58F" transform="translate(221,216)"/>
<path d="M0 0 C2.75 -0.25 2.75 -0.25 6 0 C8.375 2 8.375 2 10 4 C3.375 4.25 3.375 4.25 0 2 C0 1.34 0 0.68 0 0 Z " fill="#DDAE85" transform="translate(271,256)"/>
<path d="M0 0 C1.65 0 3.3 0 5 0 C3.68 0.33 2.36 0.66 1 1 C3.21934164 4.32901247 4.34683329 4.75023244 8 6 C6.375 6.6875 6.375 6.6875 4 7 C0.75 5.5625 0.75 5.5625 -2 4 C-1.34 3.67 -0.68 3.34 0 3 C0 2.01 0 1.02 0 0 Z " fill="#DFB18C" transform="translate(196,260)"/>
<path d="M0 0 C-3.6441774 2.4294516 -5.71241272 2.16179575 -10 2 C-6.64272747 -1.86086341 -4.42408585 -2.94939057 0 0 Z " fill="#D9A477" transform="translate(182,258)"/>
<path d="M0 0 C0.66 0.33 1.32 0.66 2 1 C1.01 2.98 0.02 4.96 -1 7 C-1.99 7 -2.98 7 -4 7 C-4.33 6.34 -4.66 5.68 -5 5 C-3.35 3.35 -1.7 1.7 0 0 Z " fill="#D9A97F" transform="translate(224,211)"/>
<path d="M0 0 C0.66 0.33 1.32 0.66 2 1 C0.02 2.98 -1.96 4.96 -4 7 C-3.67 7.66 -3.34 8.32 -3 9 C-3.99 9 -4.98 9 -6 9 C-5.52797514 4.75177626 -3.03344482 2.80010291 0 0 Z " fill="#DBAD82" transform="translate(266,226)"/>
<path d="M0 0 C0.66 0.33 1.32 0.66 2 1 C1 2.5 1 2.5 -1 4 C-3.71846235 4.27345479 -6.25677199 4.13491285 -9 4 C-6.06195683 2.47657021 -3.13439441 1.07229283 0 0 Z " fill="#DEB58E" transform="translate(313,234)"/>
</svg>
